<mxfile host="Electron" agent="Mozilla/5.0 (Windows NT 10.0; Win64; x64) AppleWebKit/537.36 (KHTML, like Gecko) draw.io/25.0.2 Chrome/128.0.6613.186 Electron/32.2.5 Safari/537.36" version="25.0.2">
  <diagram name="Page-1" id="7e0a89b8-554c-2b80-1dc8-d5c74ca68de4">
    <mxGraphModel dx="1167" dy="699" grid="1" gridSize="10" guides="1" tooltips="1" connect="1" arrows="1" fold="1" page="1" pageScale="1" pageWidth="1100" pageHeight="850" background="none" math="0" shadow="0">
      <root>
        <mxCell id="0" />
        <mxCell id="1" parent="0" />
        <mxCell id="XHX2PYXIuK75eWWbDR1B-70" value="Sauvegarde des caractÃ¨res" style="rounded=0;whiteSpace=wrap;html=1;verticalAlign=top;dashed=1;" vertex="1" parent="1">
          <mxGeometry x="350" y="196" width="190" height="534" as="geometry" />
        </mxCell>
        <mxCell id="XHX2PYXIuK75eWWbDR1B-1" value="" style="endArrow=none;html=1;rounded=0;edgeStyle=orthogonalEdgeStyle;entryX=0;entryY=0.75;entryDx=0;entryDy=0;entryPerimeter=0;strokeColor=#026309;" edge="1" parent="1" target="XHX2PYXIuK75eWWbDR1B-28">
          <mxGeometry width="50" height="50" relative="1" as="geometry">
            <mxPoint x="280" y="320" as="sourcePoint" />
            <mxPoint x="439" y="367.5" as="targetPoint" />
            <Array as="points">
              <mxPoint x="420" y="320" />
              <mxPoint x="420" y="668" />
              <mxPoint x="439" y="668" />
            </Array>
          </mxGeometry>
        </mxCell>
        <mxCell id="XHX2PYXIuK75eWWbDR1B-3" value="avl_clk_i" style="text;strokeColor=none;align=left;fillColor=none;html=1;verticalAlign=middle;whiteSpace=wrap;rounded=0;fontColor=#026309;" vertex="1" parent="1">
          <mxGeometry x="280" y="292" width="70" height="30" as="geometry" />
        </mxCell>
        <mxCell id="XHX2PYXIuK75eWWbDR1B-4" value="" style="endArrow=none;html=1;rounded=0;edgeStyle=orthogonalEdgeStyle;entryX=0.5;entryY=1;entryDx=0;entryDy=0;entryPerimeter=0;strokeColor=#026309;" edge="1" parent="1" target="XHX2PYXIuK75eWWbDR1B-28">
          <mxGeometry width="50" height="50" relative="1" as="geometry">
            <mxPoint x="280" y="241" as="sourcePoint" />
            <mxPoint x="240" y="240" as="targetPoint" />
            <Array as="points">
              <mxPoint x="520" y="241" />
              <mxPoint x="520" y="695" />
              <mxPoint x="469" y="695" />
            </Array>
          </mxGeometry>
        </mxCell>
        <mxCell id="XHX2PYXIuK75eWWbDR1B-5" value="avl_reset_i" style="text;html=1;align=left;verticalAlign=middle;resizable=0;points=[];autosize=1;strokeColor=none;fillColor=none;fontColor=#026309;" vertex="1" parent="1">
          <mxGeometry x="280" y="210" width="80" height="30" as="geometry" />
        </mxCell>
        <mxCell id="XHX2PYXIuK75eWWbDR1B-8" value="save_s" style="text;strokeColor=none;align=left;fillColor=none;html=1;verticalAlign=middle;whiteSpace=wrap;rounded=0;" vertex="1" parent="1">
          <mxGeometry x="280" y="263" width="60" height="30" as="geometry" />
        </mxCell>
        <mxCell id="XHX2PYXIuK75eWWbDR1B-10" value="" style="endArrow=none;html=1;rounded=0;edgeStyle=orthogonalEdgeStyle;entryX=0;entryY=0.5;entryDx=0;entryDy=0;entryPerimeter=0;jumpStyle=arc;" edge="1" parent="1" target="XHX2PYXIuK75eWWbDR1B-24">
          <mxGeometry width="50" height="50" relative="1" as="geometry">
            <mxPoint x="280" y="350" as="sourcePoint" />
            <mxPoint x="240" y="350" as="targetPoint" />
            <Array as="points">
              <mxPoint x="400" y="350" />
              <mxPoint x="400" y="290" />
            </Array>
          </mxGeometry>
        </mxCell>
        <mxCell id="XHX2PYXIuK75eWWbDR1B-12" value="chars_0_s" style="text;html=1;align=left;verticalAlign=middle;resizable=0;points=[];autosize=1;strokeColor=none;fillColor=none;" vertex="1" parent="1">
          <mxGeometry x="280" y="323" width="80" height="30" as="geometry" />
        </mxCell>
        <mxCell id="XHX2PYXIuK75eWWbDR1B-14" value="" style="endArrow=none;html=1;rounded=0;entryX=0;entryY=0.5;entryDx=0;entryDy=0;entryPerimeter=0;edgeStyle=orthogonalEdgeStyle;" edge="1" parent="1" target="XHX2PYXIuK75eWWbDR1B-25">
          <mxGeometry width="50" height="50" relative="1" as="geometry">
            <mxPoint x="280" y="380" as="sourcePoint" />
            <mxPoint x="240" y="380" as="targetPoint" />
          </mxGeometry>
        </mxCell>
        <mxCell id="XHX2PYXIuK75eWWbDR1B-15" value="chars_1_s" style="text;html=1;align=left;verticalAlign=middle;resizable=0;points=[];autosize=1;strokeColor=none;fillColor=none;" vertex="1" parent="1">
          <mxGeometry x="280" y="353" width="80" height="30" as="geometry" />
        </mxCell>
        <mxCell id="XHX2PYXIuK75eWWbDR1B-16" value="" style="endArrow=none;html=1;rounded=0;edgeStyle=orthogonalEdgeStyle;entryX=0;entryY=0.5;entryDx=0;entryDy=0;entryPerimeter=0;" edge="1" parent="1" target="XHX2PYXIuK75eWWbDR1B-26">
          <mxGeometry width="50" height="50" relative="1" as="geometry">
            <mxPoint x="280" y="470" as="sourcePoint" />
            <mxPoint x="240" y="465" as="targetPoint" />
          </mxGeometry>
        </mxCell>
        <mxCell id="XHX2PYXIuK75eWWbDR1B-17" value="" style="endArrow=none;html=1;rounded=0;edgeStyle=orthogonalEdgeStyle;entryX=0;entryY=0.5;entryDx=0;entryDy=0;entryPerimeter=0;" edge="1" parent="1" target="XHX2PYXIuK75eWWbDR1B-27">
          <mxGeometry width="50" height="50" relative="1" as="geometry">
            <mxPoint x="280" y="560" as="sourcePoint" />
            <mxPoint x="240" y="564.17" as="targetPoint" />
          </mxGeometry>
        </mxCell>
        <mxCell id="XHX2PYXIuK75eWWbDR1B-18" value="" style="endArrow=none;html=1;rounded=0;edgeStyle=orthogonalEdgeStyle;entryX=0;entryY=0.5;entryDx=0;entryDy=0;entryPerimeter=0;" edge="1" parent="1" target="XHX2PYXIuK75eWWbDR1B-28">
          <mxGeometry width="50" height="50" relative="1" as="geometry">
            <mxPoint x="280" y="650" as="sourcePoint" />
            <mxPoint x="240" y="650" as="targetPoint" />
          </mxGeometry>
        </mxCell>
        <mxCell id="XHX2PYXIuK75eWWbDR1B-20" value="chars_2_s" style="text;html=1;align=left;verticalAlign=middle;resizable=0;points=[];autosize=1;strokeColor=none;fillColor=none;" vertex="1" parent="1">
          <mxGeometry x="280" y="443" width="80" height="30" as="geometry" />
        </mxCell>
        <mxCell id="XHX2PYXIuK75eWWbDR1B-22" value="chars_3_s" style="text;html=1;align=left;verticalAlign=middle;resizable=0;points=[];autosize=1;strokeColor=none;fillColor=none;" vertex="1" parent="1">
          <mxGeometry x="280" y="533" width="80" height="30" as="geometry" />
        </mxCell>
        <mxCell id="XHX2PYXIuK75eWWbDR1B-23" value="checksum_s" style="text;html=1;align=left;verticalAlign=middle;resizable=0;points=[];autosize=1;strokeColor=none;fillColor=none;" vertex="1" parent="1">
          <mxGeometry x="280" y="623" width="90" height="30" as="geometry" />
        </mxCell>
        <mxCell id="XHX2PYXIuK75eWWbDR1B-29" style="edgeStyle=orthogonalEdgeStyle;rounded=0;orthogonalLoop=1;jettySize=auto;html=1;exitX=0;exitY=0.75;exitDx=0;exitDy=0;exitPerimeter=0;jumpStyle=arc;endArrow=none;endFill=0;strokeColor=#026309;" edge="1" parent="1" source="XHX2PYXIuK75eWWbDR1B-24">
          <mxGeometry relative="1" as="geometry">
            <mxPoint x="419" y="320" as="targetPoint" />
            <Array as="points">
              <mxPoint x="419" y="308" />
            </Array>
          </mxGeometry>
        </mxCell>
        <mxCell id="XHX2PYXIuK75eWWbDR1B-37" style="edgeStyle=orthogonalEdgeStyle;rounded=0;orthogonalLoop=1;jettySize=auto;html=1;exitX=0;exitY=0.25;exitDx=0;exitDy=0;exitPerimeter=0;endArrow=none;endFill=0;" edge="1" parent="1" source="XHX2PYXIuK75eWWbDR1B-24">
          <mxGeometry relative="1" as="geometry">
            <mxPoint x="379" y="290" as="targetPoint" />
            <Array as="points">
              <mxPoint x="379" y="273" />
            </Array>
          </mxGeometry>
        </mxCell>
        <mxCell id="XHX2PYXIuK75eWWbDR1B-38" style="edgeStyle=orthogonalEdgeStyle;rounded=0;orthogonalLoop=1;jettySize=auto;html=1;exitX=0.5;exitY=1;exitDx=0;exitDy=0;exitPerimeter=0;strokeColor=#026309;endArrow=none;endFill=0;" edge="1" parent="1" source="XHX2PYXIuK75eWWbDR1B-24">
          <mxGeometry relative="1" as="geometry">
            <mxPoint x="519" y="335" as="targetPoint" />
            <Array as="points">
              <mxPoint x="468" y="335" />
            </Array>
          </mxGeometry>
        </mxCell>
        <mxCell id="XHX2PYXIuK75eWWbDR1B-60" style="edgeStyle=orthogonalEdgeStyle;rounded=0;orthogonalLoop=1;jettySize=auto;html=1;exitX=1;exitY=0.5;exitDx=0;exitDy=0;exitPerimeter=0;fontColor=#026309;endArrow=none;endFill=0;" edge="1" parent="1" source="XHX2PYXIuK75eWWbDR1B-24">
          <mxGeometry relative="1" as="geometry">
            <mxPoint x="600" y="290" as="targetPoint" />
          </mxGeometry>
        </mxCell>
        <mxCell id="XHX2PYXIuK75eWWbDR1B-63" value="reg_chars_0_s" style="edgeLabel;html=1;align=center;verticalAlign=middle;resizable=0;points=[];" vertex="1" connectable="0" parent="XHX2PYXIuK75eWWbDR1B-60">
          <mxGeometry x="0.2901" y="-1" relative="1" as="geometry">
            <mxPoint x="16" y="-11" as="offset" />
          </mxGeometry>
        </mxCell>
        <mxCell id="XHX2PYXIuK75eWWbDR1B-24" value="REG32" style="rounded=0;whiteSpace=wrap;html=1;verticalAlign=top;fillColor=#dae8fc;strokeColor=#6c8ebf;points=[[0,0.25,0,0,0],[0,0.5,0,0,0],[0,0.75,0,0,0],[0.5,1,0,0,0],[1,0.5,0,0,0]];" vertex="1" parent="1">
          <mxGeometry x="438" y="255" width="60" height="70" as="geometry" />
        </mxCell>
        <mxCell id="XHX2PYXIuK75eWWbDR1B-30" style="edgeStyle=orthogonalEdgeStyle;rounded=0;orthogonalLoop=1;jettySize=auto;html=1;exitX=0;exitY=0.75;exitDx=0;exitDy=0;exitPerimeter=0;endArrow=none;endFill=0;strokeColor=#026309;" edge="1" parent="1" source="XHX2PYXIuK75eWWbDR1B-25">
          <mxGeometry relative="1" as="geometry">
            <mxPoint x="419" y="362.4" as="targetPoint" />
            <Array as="points">
              <mxPoint x="420" y="398" />
              <mxPoint x="420" y="362" />
            </Array>
          </mxGeometry>
        </mxCell>
        <mxCell id="XHX2PYXIuK75eWWbDR1B-36" style="edgeStyle=orthogonalEdgeStyle;rounded=0;orthogonalLoop=1;jettySize=auto;html=1;exitX=0;exitY=0.25;exitDx=0;exitDy=0;exitPerimeter=0;endArrow=none;endFill=0;" edge="1" parent="1" source="XHX2PYXIuK75eWWbDR1B-25">
          <mxGeometry relative="1" as="geometry">
            <mxPoint x="382" y="363" as="targetPoint" />
            <Array as="points">
              <mxPoint x="389" y="363" />
              <mxPoint x="379" y="363" />
            </Array>
          </mxGeometry>
        </mxCell>
        <mxCell id="XHX2PYXIuK75eWWbDR1B-39" style="edgeStyle=orthogonalEdgeStyle;rounded=0;orthogonalLoop=1;jettySize=auto;html=1;exitX=0.5;exitY=1;exitDx=0;exitDy=0;exitPerimeter=0;strokeColor=#026309;endArrow=none;endFill=0;" edge="1" parent="1" source="XHX2PYXIuK75eWWbDR1B-25">
          <mxGeometry relative="1" as="geometry">
            <mxPoint x="519" y="425" as="targetPoint" />
            <Array as="points">
              <mxPoint x="468" y="425" />
              <mxPoint x="519" y="425" />
            </Array>
          </mxGeometry>
        </mxCell>
        <mxCell id="XHX2PYXIuK75eWWbDR1B-61" style="edgeStyle=orthogonalEdgeStyle;rounded=0;orthogonalLoop=1;jettySize=auto;html=1;exitX=1;exitY=0.5;exitDx=0;exitDy=0;exitPerimeter=0;fontColor=#026309;endArrow=none;endFill=0;" edge="1" parent="1" source="XHX2PYXIuK75eWWbDR1B-25">
          <mxGeometry relative="1" as="geometry">
            <mxPoint x="600" y="380.33333333333337" as="targetPoint" />
          </mxGeometry>
        </mxCell>
        <mxCell id="XHX2PYXIuK75eWWbDR1B-25" value="REG32" style="rounded=0;whiteSpace=wrap;html=1;verticalAlign=top;fillColor=#dae8fc;strokeColor=#6c8ebf;points=[[0,0.25,0,0,0],[0,0.5,0,0,0],[0,0.75,0,0,0],[0.5,1,0,0,0],[1,0.5,0,0,0]];" vertex="1" parent="1">
          <mxGeometry x="438" y="345" width="60" height="70" as="geometry" />
        </mxCell>
        <mxCell id="XHX2PYXIuK75eWWbDR1B-31" style="edgeStyle=orthogonalEdgeStyle;rounded=0;orthogonalLoop=1;jettySize=auto;html=1;exitX=0;exitY=0.75;exitDx=0;exitDy=0;exitPerimeter=0;endArrow=none;endFill=0;strokeColor=#026309;" edge="1" parent="1" source="XHX2PYXIuK75eWWbDR1B-26">
          <mxGeometry relative="1" as="geometry">
            <mxPoint x="419" y="452.4" as="targetPoint" />
            <Array as="points">
              <mxPoint x="420" y="488" />
              <mxPoint x="420" y="452" />
            </Array>
          </mxGeometry>
        </mxCell>
        <mxCell id="XHX2PYXIuK75eWWbDR1B-35" style="edgeStyle=orthogonalEdgeStyle;rounded=0;orthogonalLoop=1;jettySize=auto;html=1;exitX=0;exitY=0.25;exitDx=0;exitDy=0;exitPerimeter=0;endArrow=none;endFill=0;" edge="1" parent="1" source="XHX2PYXIuK75eWWbDR1B-26">
          <mxGeometry relative="1" as="geometry">
            <mxPoint x="383" y="452" as="targetPoint" />
          </mxGeometry>
        </mxCell>
        <mxCell id="XHX2PYXIuK75eWWbDR1B-40" style="edgeStyle=orthogonalEdgeStyle;rounded=0;orthogonalLoop=1;jettySize=auto;html=1;exitX=0.5;exitY=1;exitDx=0;exitDy=0;exitPerimeter=0;strokeColor=#026309;endArrow=none;endFill=0;" edge="1" parent="1" source="XHX2PYXIuK75eWWbDR1B-26">
          <mxGeometry relative="1" as="geometry">
            <mxPoint x="519" y="515" as="targetPoint" />
            <Array as="points">
              <mxPoint x="468" y="515" />
            </Array>
          </mxGeometry>
        </mxCell>
        <mxCell id="XHX2PYXIuK75eWWbDR1B-62" style="edgeStyle=orthogonalEdgeStyle;rounded=0;orthogonalLoop=1;jettySize=auto;html=1;exitX=1;exitY=0.5;exitDx=0;exitDy=0;exitPerimeter=0;fontColor=#026309;endArrow=none;endFill=0;" edge="1" parent="1" source="XHX2PYXIuK75eWWbDR1B-26">
          <mxGeometry relative="1" as="geometry">
            <mxPoint x="600" y="470.33333333333337" as="targetPoint" />
          </mxGeometry>
        </mxCell>
        <mxCell id="XHX2PYXIuK75eWWbDR1B-26" value="REG32" style="rounded=0;whiteSpace=wrap;html=1;verticalAlign=top;fillColor=#dae8fc;strokeColor=#6c8ebf;points=[[0,0.25,0,0,0],[0,0.5,0,0,0],[0,0.75,0,0,0],[0.5,1,0,0,0],[1,0.5,0,0,0]];" vertex="1" parent="1">
          <mxGeometry x="438" y="435" width="60" height="70" as="geometry" />
        </mxCell>
        <mxCell id="XHX2PYXIuK75eWWbDR1B-32" style="edgeStyle=orthogonalEdgeStyle;rounded=0;orthogonalLoop=1;jettySize=auto;html=1;exitX=0;exitY=0.75;exitDx=0;exitDy=0;exitPerimeter=0;endArrow=none;endFill=0;strokeColor=#026309;" edge="1" parent="1" source="XHX2PYXIuK75eWWbDR1B-27">
          <mxGeometry relative="1" as="geometry">
            <mxPoint x="419" y="542.4" as="targetPoint" />
            <Array as="points">
              <mxPoint x="438" y="580" />
              <mxPoint x="420" y="580" />
              <mxPoint x="420" y="542" />
            </Array>
          </mxGeometry>
        </mxCell>
        <mxCell id="XHX2PYXIuK75eWWbDR1B-34" style="edgeStyle=orthogonalEdgeStyle;rounded=0;orthogonalLoop=1;jettySize=auto;html=1;exitX=0;exitY=0.25;exitDx=0;exitDy=0;exitPerimeter=0;endArrow=none;endFill=0;" edge="1" parent="1" source="XHX2PYXIuK75eWWbDR1B-27">
          <mxGeometry relative="1" as="geometry">
            <mxPoint x="382" y="542" as="targetPoint" />
          </mxGeometry>
        </mxCell>
        <mxCell id="XHX2PYXIuK75eWWbDR1B-41" style="edgeStyle=orthogonalEdgeStyle;rounded=0;orthogonalLoop=1;jettySize=auto;html=1;exitX=0.5;exitY=1;exitDx=0;exitDy=0;exitPerimeter=0;strokeColor=#026309;endArrow=none;endFill=0;" edge="1" parent="1" source="XHX2PYXIuK75eWWbDR1B-27">
          <mxGeometry relative="1" as="geometry">
            <mxPoint x="519" y="604" as="targetPoint" />
            <Array as="points">
              <mxPoint x="468" y="604" />
              <mxPoint x="519" y="604" />
            </Array>
          </mxGeometry>
        </mxCell>
        <mxCell id="XHX2PYXIuK75eWWbDR1B-66" style="edgeStyle=orthogonalEdgeStyle;rounded=0;orthogonalLoop=1;jettySize=auto;html=1;exitX=1;exitY=0.5;exitDx=0;exitDy=0;exitPerimeter=0;fontColor=#026309;endArrow=none;endFill=0;" edge="1" parent="1" source="XHX2PYXIuK75eWWbDR1B-27">
          <mxGeometry relative="1" as="geometry">
            <mxPoint x="600" y="560.125" as="targetPoint" />
          </mxGeometry>
        </mxCell>
        <mxCell id="XHX2PYXIuK75eWWbDR1B-27" value="REG32" style="rounded=0;whiteSpace=wrap;html=1;verticalAlign=top;fillColor=#dae8fc;strokeColor=#6c8ebf;points=[[0,0.25,0,0,0],[0,0.5,0,0,0],[0,0.75,0,0,0],[0.5,1,0,0,0],[1,0.5,0,0,0]];" vertex="1" parent="1">
          <mxGeometry x="438" y="525" width="60" height="70" as="geometry" />
        </mxCell>
        <mxCell id="XHX2PYXIuK75eWWbDR1B-68" style="edgeStyle=orthogonalEdgeStyle;rounded=0;orthogonalLoop=1;jettySize=auto;html=1;exitX=1;exitY=0.5;exitDx=0;exitDy=0;exitPerimeter=0;fontColor=#026309;endArrow=none;endFill=0;" edge="1" parent="1" source="XHX2PYXIuK75eWWbDR1B-28">
          <mxGeometry relative="1" as="geometry">
            <mxPoint x="600" y="650.125" as="targetPoint" />
          </mxGeometry>
        </mxCell>
        <mxCell id="XHX2PYXIuK75eWWbDR1B-28" value="REG8" style="rounded=0;whiteSpace=wrap;html=1;verticalAlign=top;fillColor=#dae8fc;strokeColor=#6c8ebf;points=[[0,0.25,0,0,0],[0,0.5,0,0,0],[0,0.75,0,0,0],[0.5,1,0,0,0],[1,0.5,0,0,0]];" vertex="1" parent="1">
          <mxGeometry x="438" y="615" width="60" height="70" as="geometry" />
        </mxCell>
        <mxCell id="XHX2PYXIuK75eWWbDR1B-33" value="" style="endArrow=none;html=1;rounded=0;edgeStyle=orthogonalEdgeStyle;entryX=0;entryY=0.25;entryDx=0;entryDy=0;entryPerimeter=0;jumpStyle=arc;" edge="1" parent="1" target="XHX2PYXIuK75eWWbDR1B-28">
          <mxGeometry width="50" height="50" relative="1" as="geometry">
            <mxPoint x="280" y="290" as="sourcePoint" />
            <mxPoint x="439" y="229" as="targetPoint" />
            <Array as="points">
              <mxPoint x="380" y="290" />
              <mxPoint x="380" y="633" />
            </Array>
          </mxGeometry>
        </mxCell>
        <mxCell id="XHX2PYXIuK75eWWbDR1B-43" value="E" style="text;html=1;align=center;verticalAlign=middle;resizable=0;points=[];autosize=1;strokeColor=none;fillColor=none;fontSize=8;" vertex="1" parent="1">
          <mxGeometry x="427" y="263" width="30" height="20" as="geometry" />
        </mxCell>
        <mxCell id="XHX2PYXIuK75eWWbDR1B-44" value="E" style="text;html=1;align=center;verticalAlign=middle;resizable=0;points=[];autosize=1;strokeColor=none;fillColor=none;fontSize=8;" vertex="1" parent="1">
          <mxGeometry x="427" y="353" width="30" height="20" as="geometry" />
        </mxCell>
        <mxCell id="XHX2PYXIuK75eWWbDR1B-45" value="E" style="text;html=1;align=center;verticalAlign=middle;resizable=0;points=[];autosize=1;strokeColor=none;fillColor=none;fontSize=8;" vertex="1" parent="1">
          <mxGeometry x="427" y="443" width="30" height="20" as="geometry" />
        </mxCell>
        <mxCell id="XHX2PYXIuK75eWWbDR1B-46" value="E" style="text;html=1;align=center;verticalAlign=middle;resizable=0;points=[];autosize=1;strokeColor=none;fillColor=none;fontSize=8;" vertex="1" parent="1">
          <mxGeometry x="428" y="623" width="30" height="20" as="geometry" />
        </mxCell>
        <mxCell id="XHX2PYXIuK75eWWbDR1B-47" value="E" style="text;html=1;align=center;verticalAlign=middle;resizable=0;points=[];autosize=1;strokeColor=none;fillColor=none;fontSize=8;" vertex="1" parent="1">
          <mxGeometry x="427" y="533" width="30" height="20" as="geometry" />
        </mxCell>
        <mxCell id="XHX2PYXIuK75eWWbDR1B-48" value="D" style="text;html=1;align=center;verticalAlign=middle;resizable=0;points=[];autosize=1;strokeColor=none;fillColor=none;fontSize=8;" vertex="1" parent="1">
          <mxGeometry x="427" y="280" width="30" height="20" as="geometry" />
        </mxCell>
        <mxCell id="XHX2PYXIuK75eWWbDR1B-49" value="D" style="text;html=1;align=center;verticalAlign=middle;resizable=0;points=[];autosize=1;strokeColor=none;fillColor=none;fontSize=8;" vertex="1" parent="1">
          <mxGeometry x="428" y="370" width="30" height="20" as="geometry" />
        </mxCell>
        <mxCell id="XHX2PYXIuK75eWWbDR1B-50" value="D" style="text;html=1;align=center;verticalAlign=middle;resizable=0;points=[];autosize=1;strokeColor=none;fillColor=none;fontSize=8;" vertex="1" parent="1">
          <mxGeometry x="428" y="460" width="30" height="20" as="geometry" />
        </mxCell>
        <mxCell id="XHX2PYXIuK75eWWbDR1B-52" value="D" style="text;html=1;align=center;verticalAlign=middle;resizable=0;points=[];autosize=1;strokeColor=none;fillColor=none;fontSize=8;" vertex="1" parent="1">
          <mxGeometry x="428" y="550" width="30" height="20" as="geometry" />
        </mxCell>
        <mxCell id="XHX2PYXIuK75eWWbDR1B-53" value="D" style="text;html=1;align=center;verticalAlign=middle;resizable=0;points=[];autosize=1;strokeColor=none;fillColor=none;fontSize=8;" vertex="1" parent="1">
          <mxGeometry x="428" y="640" width="30" height="20" as="geometry" />
        </mxCell>
        <mxCell id="XHX2PYXIuK75eWWbDR1B-54" value="&amp;gt;" style="text;html=1;align=center;verticalAlign=middle;resizable=0;points=[];autosize=1;strokeColor=none;fillColor=none;fontSize=8;" vertex="1" parent="1">
          <mxGeometry x="425" y="658" width="30" height="20" as="geometry" />
        </mxCell>
        <mxCell id="XHX2PYXIuK75eWWbDR1B-55" value="&amp;gt;" style="text;html=1;align=center;verticalAlign=middle;resizable=0;points=[];autosize=1;strokeColor=none;fillColor=none;fontSize=8;" vertex="1" parent="1">
          <mxGeometry x="425" y="571" width="30" height="20" as="geometry" />
        </mxCell>
        <mxCell id="XHX2PYXIuK75eWWbDR1B-56" value="&amp;gt;" style="text;html=1;align=center;verticalAlign=middle;resizable=0;points=[];autosize=1;strokeColor=none;fillColor=none;fontSize=8;" vertex="1" parent="1">
          <mxGeometry x="425" y="478" width="30" height="20" as="geometry" />
        </mxCell>
        <mxCell id="XHX2PYXIuK75eWWbDR1B-58" value="&amp;gt;" style="text;html=1;align=center;verticalAlign=middle;resizable=0;points=[];autosize=1;strokeColor=none;fillColor=none;fontSize=8;" vertex="1" parent="1">
          <mxGeometry x="425" y="388" width="30" height="20" as="geometry" />
        </mxCell>
        <mxCell id="XHX2PYXIuK75eWWbDR1B-59" value="&amp;gt;" style="text;html=1;align=center;verticalAlign=middle;resizable=0;points=[];autosize=1;strokeColor=none;fillColor=none;fontSize=8;" vertex="1" parent="1">
          <mxGeometry x="425" y="297" width="30" height="20" as="geometry" />
        </mxCell>
        <mxCell id="XHX2PYXIuK75eWWbDR1B-64" value="reg_chars_1_s" style="edgeLabel;html=1;align=center;verticalAlign=middle;resizable=0;points=[];" vertex="1" connectable="0" parent="1">
          <mxGeometry x="579.9990946395612" y="369.9953510510139" as="geometry" />
        </mxCell>
        <mxCell id="XHX2PYXIuK75eWWbDR1B-65" value="reg_chars_2_s" style="edgeLabel;html=1;align=center;verticalAlign=middle;resizable=0;points=[];" vertex="1" connectable="0" parent="1">
          <mxGeometry x="579.9990946395612" y="457.9953510510139" as="geometry" />
        </mxCell>
        <mxCell id="XHX2PYXIuK75eWWbDR1B-67" value="reg_chars_3_s" style="edgeLabel;html=1;align=center;verticalAlign=middle;resizable=0;points=[];" vertex="1" connectable="0" parent="1">
          <mxGeometry x="579.9990946395612" y="547.9953510510139" as="geometry" />
        </mxCell>
        <mxCell id="XHX2PYXIuK75eWWbDR1B-69" value="reg_checksum_s" style="edgeLabel;html=1;align=center;verticalAlign=middle;resizable=0;points=[];" vertex="1" connectable="0" parent="1">
          <mxGeometry x="585.9990946395612" y="637.9953510510139" as="geometry" />
        </mxCell>
      </root>
    </mxGraphModel>
  </diagram>
</mxfile>
